<svg width="76" height="76" viewBox="0 0 76 76" fill="none" xmlns="http://www.w3.org/2000/svg">
<rect width="76" height="76" rx="38" fill="#FF6C00"/>
<path fill-rule="evenodd" clip-rule="evenodd" d="M46.8071 17.4277L49.209 19.3469C49.3871 19.4792 49.5359 19.6502 49.6453 19.848C49.7547 20.0459 49.8222 20.2662 49.843 20.4938C49.8639 20.7214 49.8377 20.951 49.7663 21.1671C49.6948 21.3831 49.5798 21.5806 49.429 21.746L35.2381 38.405C35.0887 38.5865 34.8797 38.703 34.6524 38.7314C34.4251 38.7598 34.1958 38.6981 34.0097 38.5585L33.4597 38.1363C33.2935 37.9961 33.0864 37.9197 32.873 37.9197C32.6595 37.9197 32.4525 37.9961 32.2863 38.1363L24.6191 45.5793C30.0599 44.8756 35.4563 43.8132 40.7758 42.397C49.4074 40.0102 57.5564 36.0116 64.8306 30.5936C64.8306 30.5936 66.9941 35.8524 65.4356 37.7908C58.9315 46.0632 28.6615 53.3392 18.4176 51.5861L11.5134 58.25L11 57.655L16.4962 51.048C16.1165 50.8796 15.8041 50.6833 15.566 50.4578C15.1101 49.1675 14.7904 47.8289 14.6126 46.4658C16.6369 46.3684 18.6579 46.2217 20.6739 46.0259L44.2403 17.6964C44.5481 17.3067 44.9903 17.0598 45.471 17.0095C45.9516 16.9592 46.4317 17.1095 46.8071 17.4277ZM19.1601 48.3493C19.0931 48.4715 19.045 48.6049 19.0185 48.7446C18.9704 48.9978 18.9951 49.2602 19.0894 49.4986C19.1838 49.7371 19.3436 49.9409 19.5486 50.0843C19.7536 50.2277 19.9947 50.3043 20.2413 50.3043C20.4057 50.3069 20.5689 50.2749 20.7213 50.2102C20.8737 50.1455 21.0121 50.0495 21.1284 49.9278C21.2446 49.8061 21.3364 49.6612 21.3981 49.5017C21.4599 49.3422 21.4905 49.1713 21.488 48.9992C21.488 48.8842 21.4735 48.7703 21.4453 48.6604L21.4323 48.673C21.3539 48.4062 21.1958 48.1728 20.9813 48.007C20.7668 47.8412 20.5072 47.7517 20.2406 47.7517C19.9449 47.7462 19.6567 47.8492 19.426 48.043C19.3218 48.1305 19.2323 48.2341 19.1601 48.3493Z" fill="white"/>
</svg>
