<svg width="20" height="20" viewBox="0 0 20 20" fill="none" xmlns="http://www.w3.org/2000/svg">
<g clip-path="url(#clip0_1374_233)">
<path d="M19.9453 5.88005C19.8984 4.81738 19.7266 4.0868 19.4804 3.45374C19.2265 2.78176 18.8358 2.18014 18.3239 1.68002C17.8237 1.1721 17.2182 0.777435 16.554 0.527447C15.9172 0.281274 15.1905 0.109427 14.1278 0.0625732C13.0572 0.0117516 12.7173 0 10.0019 0C7.28657 0 6.94669 0.0117516 5.88005 0.0586052C4.81737 0.105459 4.08679 0.277459 3.45389 0.523479C2.78176 0.777435 2.18014 1.16814 1.68001 1.68002C1.1721 2.18014 0.777586 2.78573 0.527446 3.44992C0.281274 4.0868 0.109427 4.81341 0.0625732 5.87609C0.0117515 6.9467 0 7.28658 0 10.002C0 12.7173 0.0117515 13.0572 0.0586051 14.1239C0.105459 15.1865 0.277459 15.9171 0.523631 16.5502C0.777586 17.2221 1.1721 17.8238 1.68001 18.3239C2.18014 18.8318 2.78573 19.2265 3.44992 19.4765C4.08679 19.7226 4.81341 19.8945 5.87623 19.9413C6.94273 19.9883 7.28276 19.9999 9.99813 19.9999C12.7135 19.9999 13.0534 19.9883 14.12 19.9413C15.1827 19.8945 15.9133 19.7226 16.5462 19.4765C17.8903 18.9568 18.953 17.8941 19.4726 16.5502C19.7186 15.9133 19.8906 15.1865 19.9375 14.1239C19.9844 13.0572 19.9961 12.7173 19.9961 10.002C19.9961 7.28658 19.9921 6.9467 19.9453 5.88005ZM18.1442 14.0457C18.1012 15.0225 17.9371 15.5499 17.8004 15.9015C17.4643 16.7728 16.7728 17.4643 15.9015 17.8004C15.5499 17.9372 15.0186 18.1012 14.0457 18.1441C12.9908 18.1911 12.6744 18.2027 10.0059 18.2027C7.33739 18.2027 7.01705 18.1911 5.96597 18.1441C4.98922 18.1012 4.46177 17.9372 4.11014 17.8004C3.67656 17.6402 3.28189 17.3862 2.96154 17.0541C2.62945 16.7298 2.37549 16.3391 2.21524 15.9055C2.0785 15.5539 1.91443 15.0225 1.87155 14.0497C1.82454 12.9948 1.81294 12.6783 1.81294 10.0097C1.81294 7.34122 1.82454 7.02087 1.87155 5.96995C1.91443 4.99319 2.0785 4.46575 2.21524 4.11412C2.37549 3.68038 2.62945 3.28586 2.96551 2.96536C3.28967 2.63327 3.68037 2.37931 4.11411 2.21921C4.46574 2.08247 4.99716 1.9184 5.96994 1.87537C7.02483 1.82851 7.34136 1.81676 10.0097 1.81676C12.6822 1.81676 12.9986 1.82851 14.0497 1.87537C15.0264 1.9184 15.5539 2.08247 15.9055 2.21921C16.3391 2.37931 16.7338 2.63327 17.0541 2.96536C17.3862 3.28967 17.6401 3.68038 17.8004 4.11412C17.9371 4.46575 18.1012 4.99701 18.1442 5.96995C18.1911 7.02484 18.2028 7.34122 18.2028 10.0097C18.2028 12.6783 18.1911 12.9908 18.1442 14.0457Z" fill="#FF6C00"/>
<path d="M10.0371 4.86414C7.20074 4.86414 4.89941 7.16531 4.89941 10.0019C4.89941 12.8384 7.20074 15.1396 10.0371 15.1396C12.8737 15.1396 15.1749 12.8384 15.1749 10.0019C15.1749 7.16531 12.8737 4.86414 10.0371 4.86414ZM10.0371 13.3346C8.19702 13.3346 6.70442 11.8421 6.70442 10.0019C6.70442 8.16159 8.19702 6.66915 10.0371 6.66915C11.8774 6.66915 13.3698 8.16159 13.3698 10.0019C13.3698 11.8421 11.8774 13.3346 10.0371 13.3346V13.3346Z" fill="#FF6C00"/>
<path d="M16.5777 4.6611C16.5777 5.32346 16.0407 5.86052 15.3781 5.86052C14.7158 5.86052 14.1787 5.32346 14.1787 4.6611C14.1787 3.99858 14.7158 3.46167 15.3781 3.46167C16.0407 3.46167 16.5777 3.99858 16.5777 4.6611V4.6611Z" fill="#FF6C00"/>
</g>
<defs>
<clipPath id="clip0_1374_233">
<rect width="20" height="20" fill="white"/>
</clipPath>
</defs>
</svg>
