<svg aria-hidden="true" style="position:absolute;width:0;height:0;overflow:hidden" xmlns="http://www.w3.org/2000/svg">
  <defs>
    <!-- Logo icon -->
    <symbol id="logo" viewBox="0 0 32 32">
      <path d="M18.275 11.191l0.596 0.437c0.044 0.030 0.081 0.069 0.108 0.114s0.044 0.095 0.049 0.147-0.001 0.104-0.019 0.153c-0.018 0.049-0.046 0.094-0.084 0.132l-3.523 3.791c-0.037 0.041-0.089 0.068-0.145 0.074s-0.113-0.008-0.16-0.039l-0.137-0.096c-0.041-0.032-0.093-0.049-0.146-0.049s-0.104 0.017-0.146 0.049l-1.903 1.694c1.351-0.16 2.69-0.402 4.011-0.724 2.143-0.543 4.166-1.453 5.971-2.686 0 0 0.537 1.197 0.15 1.638-1.615 1.882-9.129 3.538-11.672 3.139l-1.714 1.516-0.127-0.135 1.364-1.503c-0.094-0.038-0.172-0.083-0.231-0.134-0.113-0.294-0.193-0.598-0.237-0.908 0.503-0.022 1.004-0.056 1.505-0.1l5.85-6.447c0.076-0.089 0.186-0.145 0.305-0.156s0.239 0.023 0.332 0.095zM11.412 18.227c-0.017 0.028-0.029 0.058-0.035 0.090-0.012 0.058-0.006 0.117 0.018 0.172s0.063 0.101 0.114 0.133c0.051 0.033 0.111 0.050 0.172 0.050 0.041 0.001 0.081-0.007 0.119-0.021s0.072-0.037 0.101-0.064c0.029-0.028 0.052-0.061 0.067-0.097s0.023-0.075 0.022-0.114c0-0.026-0.004-0.052-0.011-0.077l-0.003 0.003c-0.019-0.061-0.059-0.114-0.112-0.152s-0.118-0.058-0.184-0.058c-0.073-0.001-0.145 0.022-0.202 0.066-0.026 0.020-0.048 0.044-0.066 0.070z"></path>
      <path d="M15.439 5.884l0.724 0.948 0.351-0.013-0.758-1.008c0.202-0.066 0.378-0.195 0.503-0.366 0.117-0.179 0.173-0.39 0.16-0.603 0.002-0.144-0.029-0.286-0.091-0.416s-0.152-0.244-0.264-0.334c-0.267-0.188-0.593-0.276-0.919-0.246l-1.153 0.004 0.1 3.017h0.321l-0.030-0.957 0.815-0.026c0.081 0.004 0.162 0.004 0.243 0zM16.035 5.158c-0.038 0.098-0.099 0.186-0.177 0.257-0.193 0.151-0.434 0.229-0.68 0.22l-0.806 0.026-0.052-1.508 0.823-0.030c0.24-0.020 0.481 0.042 0.68 0.177 0.082 0.067 0.147 0.151 0.192 0.246s0.066 0.2 0.064 0.305c0.009 0.105-0.006 0.21-0.044 0.308zM13.186 6.724l0.065 0.271-2.088 0.487-0.693-2.939 2.028-0.47 0.061 0.267-1.733 0.401 0.247 1.043 1.525-0.358 0.065 0.267-1.529 0.353 0.26 1.090 1.794-0.414zM7.766 5.604l-0.29 0.129 1.257 2.745 1.837-0.832-0.113-0.25-1.547 0.698-1.144-2.491zM4.746 7.53l0.26-0.194 1.651 2.198 1.361-1.013 0.165 0.22-1.616 1.202-1.82-2.413zM4.022 11.65l1.010-1.34 0.867 0.181 0.204-0.267-3.263-0.698-0.186 0.254 1.603 2.909 0.199-0.267-0.433-0.771zM3.013 9.853l1.733 0.388-0.867 1.159-0.867-1.547zM2.649 12.723l-0.069 0.297 0.992 0.25c0.105 0.262 0.123 0.55 0.052 0.823-0.047 0.225-0.152 0.434-0.303 0.608-0.147 0.161-0.334 0.281-0.542 0.349-0.217 0.061-0.446 0.061-0.663 0-0.224-0.048-0.429-0.157-0.594-0.315-0.16-0.148-0.275-0.338-0.334-0.547-0.062-0.221-0.067-0.454-0.013-0.677 0.030-0.172 0.097-0.335 0.196-0.479s0.227-0.266 0.376-0.357l-0.156-0.237c-0.174 0.098-0.323 0.235-0.433 0.401-0.117 0.182-0.2 0.384-0.247 0.595-0.078 0.282-0.078 0.58 0 0.862 0.070 0.26 0.213 0.494 0.412 0.677 0.202 0.19 0.452 0.321 0.724 0.379 0.271 0.062 0.553 0.051 0.819-0.030 0.258-0.081 0.488-0.23 0.667-0.431 0.188-0.213 0.317-0.472 0.373-0.75 0.047-0.2 0.061-0.407 0.039-0.612-0.019-0.193-0.076-0.381-0.169-0.552l-1.127-0.254zM18.454 6.031l-0.156 1.030-0.316-0.047 0.16-1.013-0.897-2.155 0.338 0.052 0.767 1.836 1.3-1.521 0.303 0.065-1.499 1.754zM23.116 6.337l-0.377-0.487 0.594-0.069v-0.211l-0.624 0.086 0.221-0.577-0.186-0.078-0.234 0.569-0.334-0.491-0.169 0.129 0.381 0.487-0.615 0.069v0.207l0.624-0.082-0.243 0.565 0.182 0.078 0.238-0.565 0.377 0.5 0.165-0.129zM24.186 9.323c-0.102-0.157-0.166-0.336-0.186-0.521l0.256-0.112c0.019 0.171 0.075 0.335 0.165 0.483 0.097 0.165 0.223 0.311 0.373 0.431 0.154 0.147 0.352 0.242 0.563 0.271 0.076 0.007 0.154-0.005 0.225-0.034s0.134-0.075 0.183-0.134c0.036-0.039 0.063-0.086 0.080-0.136s0.024-0.104 0.019-0.157c-0.014-0.105-0.050-0.206-0.104-0.297-0.081-0.132-0.17-0.26-0.264-0.384-0.115-0.15-0.22-0.309-0.312-0.474-0.071-0.124-0.109-0.263-0.113-0.405-0-0.16 0.060-0.314 0.169-0.431 0.094-0.114 0.219-0.199 0.36-0.246 0.157-0.045 0.324-0.045 0.481 0 0.202 0.066 0.39 0.171 0.55 0.31 0.133 0.11 0.251 0.238 0.351 0.379 0.092 0.131 0.161 0.277 0.204 0.431l-0.247 0.129c-0.043-0.144-0.107-0.28-0.191-0.405-0.083-0.112-0.181-0.212-0.29-0.297-0.152-0.146-0.349-0.239-0.559-0.263-0.077-0.006-0.155 0.006-0.226 0.037s-0.133 0.079-0.181 0.139c-0.037 0.039-0.065 0.085-0.082 0.136s-0.023 0.104-0.018 0.157c0.010 0.109 0.046 0.213 0.104 0.306 0.061 0.099 0.147 0.228 0.264 0.384 0.116 0.147 0.22 0.302 0.312 0.465 0.072 0.123 0.112 0.262 0.117 0.405 0 0.16-0.060 0.314-0.169 0.431-0.095 0.115-0.221 0.201-0.364 0.246-0.157 0.047-0.324 0.047-0.481 0-0.204-0.066-0.392-0.171-0.555-0.31-0.175-0.151-0.322-0.332-0.433-0.534zM27.934 9.090l0.611 0.862-2.257 1.586 0.182 0.263 2.262-1.573 0.611 0.862 0.225-0.159-1.408-2-0.225 0.159zM27.574 13.495c0.077-0.26 0.228-0.494 0.433-0.672 0.201-0.179 0.446-0.303 0.711-0.358 0.269-0.062 0.55-0.051 0.815 0.030 0.255 0.084 0.483 0.232 0.663 0.431 0.187 0.214 0.314 0.472 0.368 0.75 0.072 0.273 0.072 0.559 0 0.832-0.079 0.259-0.229 0.492-0.433 0.672-0.207 0.184-0.458 0.312-0.729 0.371s-0.553 0.047-0.818-0.034c-0.257-0.080-0.486-0.229-0.663-0.431-0.186-0.212-0.313-0.469-0.368-0.746-0.066-0.279-0.059-0.57 0.022-0.845zM28.142 14.865c0.145 0.164 0.332 0.285 0.542 0.349 0.216 0.062 0.444 0.070 0.664 0.021s0.423-0.15 0.593-0.297c0.16-0.146 0.278-0.332 0.342-0.539 0.060-0.218 0.066-0.447 0.017-0.668s-0.152-0.426-0.299-0.599c-0.151-0.165-0.344-0.285-0.559-0.349-0.219-0.058-0.449-0.058-0.667 0-0.221 0.042-0.425 0.145-0.589 0.297-0.161 0.147-0.28 0.335-0.342 0.543-0.059 0.219-0.059 0.449 0 0.668 0.047 0.214 0.151 0.411 0.299 0.573zM28.367 18.067l-1.122 0.431-0.082 0.323 1.196-0.431c0.001 0.213 0.075 0.419 0.21 0.584s0.322 0.28 0.531 0.325c0.137 0.044 0.283 0.057 0.426 0.036s0.279-0.074 0.397-0.156c0.258-0.199 0.436-0.483 0.503-0.802l0.295-1.090-2.929-0.78-0.082 0.306 0.919 0.237-0.212 0.78c-0.003 0.010-0.005 0.020-0.008 0.030l-0.004 0.013c-0.018 0.066-0.036 0.13-0.036 0.194zM28.899 18.855c-0.083-0.064-0.152-0.145-0.202-0.236-0.088-0.228-0.093-0.48-0.013-0.711l0.208-0.776 1.469 0.392-0.208 0.776c-0.047 0.24-0.177 0.455-0.368 0.608-0.090 0.054-0.19 0.090-0.294 0.105s-0.21 0.009-0.312-0.018c-0.102-0.027-0.197-0.074-0.279-0.139zM25.689 21.273l-0.221-0.168 1.3-1.702 2.418 1.823-1.257 1.651-0.221-0.168 1.062-1.392-0.867-0.651-0.949 1.245-0.217-0.164 0.971-1.245-0.897-0.677-1.122 1.448zM24.056 24.743l0.62-0.034-0.316 0.521 0.182 0.103 0.286-0.56 0.329 0.517 0.169-0.108-0.334-0.513h0.628v-0.211l-0.62 0.034 0.295-0.543-0.186-0.099-0.269 0.577-0.329-0.517-0.169 0.108 0.334 0.513-0.62 0.004v0.207zM19.043 24.363l0.524 0.289c0.088-0.168 0.211-0.315 0.36-0.433s0.322-0.202 0.507-0.248c0.172-0.053 0.353-0.072 0.533-0.056 0.156 0.012 0.306 0.065 0.433 0.155 0.115 0.087 0.2 0.207 0.243 0.345 0.052 0.17 0.043 0.353-0.026 0.517-0.109 0.223-0.255 0.426-0.433 0.599 0.143 0.076 0.275 0.17 0.394 0.28 0.082 0.084 0.143 0.186 0.178 0.297 0.022 0.087 0.024 0.178 0.004 0.265s-0.060 0.169-0.117 0.239c-0.116 0.166-0.288 0.284-0.485 0.332-0.173 0.066-0.364 0.066-0.537 0-0.077-0.033-0.145-0.083-0.199-0.147s-0.093-0.139-0.113-0.22c-0.045-0.142-0.035-0.296 0.030-0.431 0.099-0.196 0.23-0.375 0.386-0.53l-1.044-0.577c-0.040 0.203-0.049 0.411-0.026 0.616h-0.264c-0.018-0.253 0.012-0.507 0.087-0.75l-0.546-0.302 0.113-0.241zM19.797 24.794l1.148 0.634c0.15-0.143 0.275-0.311 0.368-0.496 0.048-0.125 0.048-0.263 0-0.388-0.020-0.075-0.058-0.143-0.111-0.2s-0.119-0.099-0.193-0.123c-0.18-0.060-0.375-0.060-0.555 0-0.147 0.039-0.284 0.109-0.4 0.206s-0.211 0.218-0.276 0.355l0.017 0.013zM21.426 26.518c0.028-0.048 0.046-0.101 0.052-0.156s0-0.111-0.017-0.163c-0.027-0.085-0.074-0.162-0.139-0.224-0.11-0.093-0.231-0.172-0.36-0.237-0.131 0.129-0.246 0.274-0.342 0.431-0.052 0.098-0.065 0.212-0.035 0.319 0.014 0.049 0.038 0.095 0.071 0.135s0.074 0.071 0.12 0.094c0.11 0.041 0.232 0.041 0.342 0 0.118-0.031 0.221-0.103 0.29-0.203l0.017 0.004zM13.822 24.669l-0.061 3.017 0.264 0.004 1.348-2.211 1.274 2.254h0.264l0.056-3.017h-0.308l-0.043 2.4-1.153-2.043h-0.152l-1.231 2.008 0.048-2.413h-0.308zM12.254 24.531c0.198 0.188 0.34 0.427 0.41 0.69s0.064 0.541-0.015 0.801c-0.071 0.267-0.213 0.509-0.412 0.702-0.193 0.188-0.434 0.32-0.698 0.379-0.278 0.062-0.567 0.053-0.841-0.026-0.273-0.066-0.523-0.201-0.728-0.392-0.195-0.185-0.335-0.421-0.403-0.681-0.067-0.268-0.062-0.55 0.014-0.816s0.22-0.508 0.419-0.701c0.189-0.188 0.426-0.322 0.685-0.388 0.276-0.062 0.564-0.053 0.836 0.026 0.275 0.069 0.528 0.209 0.732 0.405zM10.777 24.381c-0.212 0.049-0.406 0.157-0.559 0.31-0.16 0.158-0.273 0.356-0.329 0.573-0.060 0.216-0.060 0.444 0 0.659 0.051 0.21 0.161 0.401 0.316 0.552 0.163 0.159 0.365 0.273 0.585 0.332 0.22 0.056 0.451 0.056 0.672 0 0.212-0.052 0.407-0.159 0.563-0.31 0.159-0.159 0.272-0.357 0.329-0.573 0.061-0.217 0.061-0.447 0-0.664-0.055-0.209-0.166-0.4-0.321-0.552-0.164-0.159-0.367-0.272-0.589-0.328-0.218-0.060-0.449-0.060-0.667 0zM7.614 23.562l-0.117-1.185-0.308-0.198 0.126 1.267c-0.208-0.051-0.426-0.034-0.624 0.047-0.195 0.091-0.354 0.242-0.455 0.431-0.077 0.121-0.125 0.257-0.142 0.399s-0.001 0.285 0.046 0.42c0.128 0.299 0.358 0.544 0.65 0.69l0.988 0.565 1.516-2.599-0.282-0.159-0.477 0.836-0.706-0.405c-0.070-0.040-0.142-0.076-0.217-0.108zM6.722 23.872c0.084-0.063 0.179-0.108 0.281-0.134v-0.022c0.25-0.013 0.497 0.062 0.698 0.211l0.698 0.401-0.758 1.293-0.698-0.401c-0.221-0.109-0.397-0.29-0.498-0.513-0.029-0.1-0.038-0.205-0.026-0.309s0.046-0.204 0.098-0.294c0.052-0.091 0.122-0.17 0.206-0.233zM4.932 20.355l0.195-0.194 1.495 1.53-2.166 2.103-1.443-1.482 0.199-0.194 1.226 1.254 0.741-0.746-1.075-1.112 0.208-0.198 1.096 1.12 0.806-0.78-1.283-1.301zM1.817 18.067l-0.104 0.595-0.468-0.405-0.143 0.155 0.481 0.401-0.581 0.203 0.065 0.168 0.581-0.207-0.121 0.612 0.208 0.039 0.108-0.612 0.464 0.431 0.139-0.155-0.481-0.405 0.585-0.198-0.069-0.19-0.576 0.211 0.117-0.612-0.204-0.030z"></path>
    </symbol>
    <!-- Socials icons -->
    <symbol id="instagram" viewBox="0 0 32 32">
      <path d="M31.912 9.408c-.075-1.7-.35-2.869-.744-3.882a7.803 7.803 0 0 0-1.85-2.838A7.867 7.867 0 0 0 26.486.844C25.467.45 24.304.175 22.604.1 20.891.019 20.347 0 16.003 0s-4.888.019-6.595.094c-1.7.075-2.869.35-3.882.744a7.803 7.803 0 0 0-2.838 1.85A7.867 7.867 0 0 0 .844 5.52C.45 6.539.175 7.702.1 9.402c-.081 1.713-.1 2.257-.1 6.601s.019 4.888.094 6.595c.075 1.7.35 2.869.744 3.882a7.895 7.895 0 0 0 1.85 2.838 7.867 7.867 0 0 0 2.832 1.844c1.019.394 2.182.669 3.882.744 1.706.075 2.25.094 6.595.094s4.888-.019 6.595-.094c1.7-.075 2.869-.35 3.882-.744a8.184 8.184 0 0 0 4.682-4.682c.394-1.019.669-2.182.744-3.882.075-1.707.094-2.251.094-6.595s-.006-4.888-.081-6.595zm-2.881 13.065c-.069 1.563-.331 2.407-.55 2.969a5.31 5.31 0 0 1-3.038 3.038c-.563.219-1.413.481-2.969.55-1.688.075-2.194.094-6.464.094s-4.782-.019-6.464-.094c-1.563-.069-2.407-.331-2.969-.55a4.926 4.926 0 0 1-1.838-1.194 4.974 4.974 0 0 1-1.194-1.838c-.219-.563-.481-1.413-.55-2.969-.075-1.688-.094-2.194-.094-6.464s.019-4.782.094-6.464c.069-1.563.331-2.407.55-2.969a4.868 4.868 0 0 1 1.2-1.838A4.974 4.974 0 0 1 6.583 3.55c.563-.219 1.413-.481 2.969-.55 1.688-.075 2.194-.094 6.464-.094 4.276 0 4.782.019 6.464.094 1.563.069 2.407.331 2.969.55a4.914 4.914 0 0 1 1.838 1.194 4.974 4.974 0 0 1 1.194 1.838c.219.563.481 1.413.55 2.969.075 1.688.094 2.194.094 6.464s-.019 4.77-.094 6.458z"/>
      <path d="M16.059 7.783c-4.538 0-8.22 3.682-8.22 8.22s3.682 8.22 8.22 8.22c4.539 0 8.22-3.682 8.22-8.22s-3.682-8.22-8.22-8.22zm0 13.552a5.333 5.333 0 0 1 0-10.664 5.333 5.333 0 0 1 0 10.664zM26.524 7.458a1.919 1.919 0 1 1-3.838 0 1.919 1.919 0 0 1 3.838 0z"/>
    </symbol>
    <symbol id="twitter" viewBox="0 0 32 32">
      <path d="M32 6.078c-1.19.522-2.458.868-3.78 1.036a6.523 6.523 0 0 0 2.886-3.626 13.11 13.11 0 0 1-4.16 1.588A6.574 6.574 0 0 0 22.154 3c-3.632 0-6.556 2.948-6.556 6.562 0 .52.044 1.02.152 1.496-5.454-.266-10.28-2.88-13.522-6.862a6.605 6.605 0 0 0-.898 3.316 6.57 6.57 0 0 0 2.914 5.452 6.479 6.479 0 0 1-2.964-.808v.072c0 3.188 2.274 5.836 5.256 6.446a6.548 6.548 0 0 1-1.72.216 5.8 5.8 0 0 1-1.242-.112c.85 2.598 3.262 4.508 6.13 4.57a13.182 13.182 0 0 1-8.134 2.798c-.538 0-1.054-.024-1.57-.09A18.469 18.469 0 0 0 10.064 29c12.072 0 18.672-10 18.672-18.668 0-.29-.01-.57-.024-.848A13.087 13.087 0 0 0 32 6.078z"/>
    </symbol>
    <symbol id="facebook" viewBox="0 0 32 32">
      <path d="M21.33 5.313h2.921V.225C23.747.156 22.014 0 19.995 0c-4.212 0-7.097 2.649-7.097 7.519V12H8.25v5.688h4.648V32h5.699V17.689h4.46l.708-5.688h-5.169V8.082c.001-1.644.444-2.769 2.735-2.769z"/>
    </symbol>
    <symbol id="linkedin" viewBox="0 0 32 32">
      <path d="M31.992 32v-.001H32V20.263c0-5.741-1.236-10.164-7.948-10.164-3.227 0-5.392 1.771-6.276 3.449h-.093v-2.913h-6.364v21.364h6.627V21.42c0-2.785.528-5.479 3.977-5.479 3.399 0 3.449 3.179 3.449 5.657v10.401h6.62zM.528 10.636h6.635V32H.528V10.636zM3.843 0C1.722 0 0 1.721 0 3.843s1.721 3.879 3.843 3.879c2.121 0 3.843-1.757 3.843-3.879A3.846 3.846 0 0 0 3.843 0z"/>
    </symbol>
    <!-- Contacts icons -->
    <symbol id="map-pin" viewBox="0 0 32 32">
      <path fill="none" stroke="#9da4bd" style="stroke:var(--color1, #9da4bd)" stroke-linejoin="round" stroke-linecap="round" stroke-width="1.333" d="M26.667 13.818C26.667 21.454 16 28 16 28S5.333 21.455 5.333 13.818C5.333 8.396 10.109 4 16 4s10.667 4.396 10.667 9.818v0z"/>
      <path fill="none" stroke="#9da4bd" style="stroke:var(--color1, #9da4bd)" stroke-linejoin="round" stroke-linecap="round" stroke-width="1.333" d="M16 18.667a4 4 0 1 0 0-8 4 4 0 0 0 0 8z"/>
    </symbol>
    <symbol id="phone" viewBox="0 0 32 32">
      <path fill="none" stroke="#9da4bd" style="stroke:var(--color1, #9da4bd)" stroke-linejoin="round" stroke-linecap="round" stroke-width="1.333" d="M26.666 21.337v3.218a2.146 2.146 0 0 1-2.338 2.145 21.239 21.239 0 0 1-9.257-3.293 20.914 20.914 0 0 1-6.436-6.436 21.221 21.221 0 0 1-3.293-9.3 2.144 2.144 0 0 1 2.134-2.338h3.218a2.144 2.144 0 0 1 2.145 1.845c.136 1.03.388 2.041.751 3.014a2.144 2.144 0 0 1-.483 2.263l-1.362 1.362a17.162 17.162 0 0 0 6.436 6.436l1.362-1.362a2.146 2.146 0 0 1 2.263-.483c.973.363 1.984.615 3.014.751a2.144 2.144 0 0 1 1.845 2.177z"/>
    </symbol>
    <symbol id="email" viewBox="0 0 32 32">
      <path fill="none" stroke="#9da4bd" style="stroke:var(--color1, #9da4bd)" stroke-linejoin="round" stroke-linecap="round" stroke-width="1.333" d="M6.4 6.667h19.2c1.32 0 2.4 1.05 2.4 2.333v14c0 1.283-1.08 2.333-2.4 2.333H6.4C5.08 25.333 4 24.283 4 23V9c0-1.283 1.08-2.333 2.4-2.333z"/>
      <path fill="none" stroke="#9da4bd" style="stroke:var(--color1, #9da4bd)" stroke-linejoin="round" stroke-linecap="round" stroke-width="1.333" d="m26.667 9.333-10.667 8-10.667-8"/>
    </symbol>
    <!-- Modal icons -->
    <symbol id="icon-close" viewBox="0 0 384 512">
      <path d="M342.6 150.6c12.5-12.5 12.5-32.8 0-45.3s-32.8-12.5-45.3 0L192 210.7 86.6 105.4c-12.5-12.5-32.8-12.5-45.3 0s-12.5 32.8 0 45.3L146.7 256 41.4 361.4c-12.5 12.5-12.5 32.8 0 45.3s32.8 12.5 45.3 0L192 301.3 297.4 406.6c12.5 12.5 32.8 12.5 45.3 0s12.5-32.8 0-45.3L237.3 256 342.6 150.6z"/>
    </symbol>
  </defs>
</svg>
